<svg viewBox="-8 -8 116 116" xmlns="http://www.w3.org/2000/svg" fill="none">
  <rect x="-8" y="-8" width="116" height="116" fill="#000"/>
  <g stroke="#FFFFFF" stroke-width="4.2" stroke-linecap="round" stroke-linejoin="round">
    <!-- Left arm from upper-left -->
    <line x1="7"  y1="23" x2="31" y2="47"/>
    <!-- Left sleeve cuff -->
    <line x1="3"  y1="33" x2="15" y2="33"/>
    <!-- Right arm from upper-right -->
    <line x1="93" y1="23" x2="69" y2="47"/>
    <!-- Right sleeve cuff -->
    <line x1="85" y1="33" x2="97" y2="33"/>
    <!-- Clasped grip top arc -->
    <path d="M31,47 C35,41 40,39 45,42 L50,45 L55,42 C60,39 65,41 69,47"/>
    <!-- Bottom arc of the grip -->
    <path d="M29,55 C32,63 40,67 50,67 C60,67 68,63 71,55"/>
    <!-- Left-hand fingers -->
    <line x1="30" y1="56" x2="21" y2="69"/>
    <line x1="38" y1="63" x2="31" y2="77"/>
    <line x1="46" y1="66" x2="41" y2="80"/>
    <!-- Right-hand fingers -->
    <line x1="70" y1="56" x2="79" y2="69"/>
    <line x1="62" y1="63" x2="69" y2="77"/>
    <line x1="54" y1="66" x2="59" y2="80"/>
  </g>
</svg>
